<svg width="960" height="455" viewBox="0 0 960 455" fill="none" xmlns="http://www.w3.org/2000/svg">
<g clip-path="url(#clip0_6_3)">
<rect x="265" width="635" height="434" rx="12" fill="#191D36"/>
<rect x="268" y="3" width="629" height="428" rx="10" fill="#0B0E21"/>
<rect x="281" y="16" width="603" height="402" rx="5" fill="#16171B"/>
<rect x="284" y="18" width="597.554" height="396.861" rx="3" fill="#EBEDF4"/>
<mask id="mask0_6_3" style="mask-type:alpha" maskUnits="userSpaceOnUse" x="284" y="18" width="598" height="397">
<rect x="284" y="18" width="597.554" height="396.861" rx="3" fill="white"/>
</mask>
<g mask="url(#mask0_6_3)">
<rect x="413" y="107" width="331" height="47" rx="5" fill="white"/>
<rect x="429" y="125" width="53" height="5" rx="2.5" fill="#B1B4C7"/>
<rect x="429" y="134" width="34" height="5" rx="2.5" fill="#D4D7E6"/>
<rect x="504" y="125" width="53" height="5" rx="2.5" fill="#B1B4C7"/>
<rect x="504" y="134" width="34" height="5" rx="2.5" fill="#D4D7E6"/>
<rect x="606" y="125" width="53" height="5" rx="2.5" fill="#B1B4C7"/>
<rect x="606" y="134" width="34" height="5" rx="2.5" fill="#D4D7E6"/>
<rect x="679" y="125" width="53" height="5" rx="2.5" fill="#B1B4C7"/>
<rect x="679" y="134" width="34" height="5" rx="2.5" fill="#D4D7E6"/>
<rect x="413" y="168" width="331" height="184" rx="5" fill="white"/>
<mask id="mask1_6_3" style="mask-type:alpha" maskUnits="userSpaceOnUse" x="413" y="168" width="331" height="184">
<rect x="413" y="168" width="331" height="184" rx="5" fill="white"/>
</mask>
<g mask="url(#mask1_6_3)">
<rect x="397" y="200" width="184" height="24" rx="12" fill="#FF5E5E"/>
<rect x="397" y="296" width="184" height="24" rx="12" fill="#FF5E5E"/>
<rect x="589" y="200" width="24" height="24" rx="12" fill="#BC4747"/>
<rect x="589" y="232" width="88" height="24" rx="12" fill="#FF5E5E"/>
<rect x="467" y="231.547" width="114" height="24" rx="12" fill="#BC4747"/>
<rect x="627" y="264.53" width="50" height="24" rx="12" fill="#FF5E5E"/>
<rect x="380" y="263.925" width="79" height="24" rx="12" fill="#FF5E5E"/>
<rect x="685" y="232" width="24" height="24" rx="12" fill="#BC4747"/>
</g>
<rect x="413" y="32" width="77" height="5" rx="2.5" fill="#CBCEDC"/>
<rect x="413" y="58" width="66" height="19" rx="9.5" fill="#8C90A3"/>
<rect x="489" y="58.2883" width="31" height="19" rx="9.5" fill="#8C90A3"/>
<rect x="528" y="58" width="31" height="19" rx="9.5" fill="#8C90A3"/>
<rect x="284" y="18" width="107" height="397" fill="#353740"/>
<rect x="299" y="98" width="77" height="5" rx="2.5" fill="#4A4E5D"/>
<rect x="299" y="117" width="77" height="5" rx="2.5" fill="#4A4E5D"/>
<rect x="299" y="136" width="77" height="5" rx="2.5" fill="#4A4E5D"/>
<rect x="299" y="155" width="77" height="5" rx="2.5" fill="#4A4E5D"/>
<rect x="299" y="174" width="77" height="5" rx="2.5" fill="#4A4E5D"/>
<rect x="299" y="396" width="77" height="5" rx="2.5" fill="#4A4E5D"/>
<rect x="323" y="57" width="53" height="5" rx="2.5" fill="#7B7F90"/>
<rect x="323" y="66" width="34" height="5" rx="2.5" fill="#4A4E5D"/>
<circle cx="308" cy="64" r="9" fill="#FF5E5E"/>
<rect x="299" y="30" width="77" height="9" rx="4.5" fill="#8C90A3"/>
</g>
<rect opacity="0.0979818" x="571" y="8" width="15.64" height="4" rx="2" fill="#4A5166"/>
<rect opacity="0.0979818" x="590.32" y="8" width="3.68" height="4" rx="1.84" fill="#4A5166"/>
<path d="M184 433C184 431.343 185.343 430 187 430H956.629C958.286 430 959.629 431.343 959.629 433V449.006H184V433Z" fill="#242942"/>
<mask id="mask2_6_3" style="mask-type:alpha" maskUnits="userSpaceOnUse" x="184" y="430" width="776" height="20">
<path d="M184 433C184 431.343 185.343 430 187 430H956.629C958.286 430 959.629 431.343 959.629 433V449.006H184V433Z" fill="white"/>
</mask>
<g mask="url(#mask2_6_3)">
<rect x="508.47" y="383.436" width="126.689" height="57.9678" rx="10" fill="#2E334F"/>
</g>
<path d="M184 448H960V448C960 451.866 956.866 455 953 455H191C187.134 455 184 451.866 184 448V448Z" fill="#1A1C27"/>
<g filter="url(#filter0_d_6_3)">
<rect x="44" y="0.21051" width="167" height="341" rx="12" fill="#242942"/>
</g>
<rect x="50" y="6" width="155" height="330" rx="9" fill="#EBEDF4"/>
<mask id="mask3_6_3" style="mask-type:alpha" maskUnits="userSpaceOnUse" x="50" y="6" width="155" height="330">
<rect x="50" y="6" width="155" height="330" rx="9" fill="white"/>
</mask>
<g mask="url(#mask3_6_3)">
<rect x="50" y="6" width="155" height="77" fill="#353740"/>
<rect x="58" y="114" width="140" height="184" rx="5" fill="white"/>
<mask id="mask4_6_3" style="mask-type:alpha" maskUnits="userSpaceOnUse" x="58" y="114" width="140" height="184">
<rect x="58" y="114" width="140" height="184" rx="5" fill="white"/>
</mask>
<g mask="url(#mask4_6_3)">
<rect width="184" height="24" rx="12" transform="matrix(-1 0 0 1 334 146)" fill="#FF5E5E"/>
<rect width="184" height="24" rx="12" transform="matrix(-1 0 0 1 334 242)" fill="#FF5E5E"/>
<rect width="24" height="24" rx="12" transform="matrix(-1 0 0 1 142 146)" fill="#BC4747"/>
<rect width="88" height="24" rx="12" transform="matrix(-1 0 0 1 142 178)" fill="#FF5E5E"/>
<rect width="114" height="24" rx="12" transform="matrix(-1 0 0 1 264 177.547)" fill="#BC4747"/>
<rect width="50" height="24" rx="12" transform="matrix(-1 0 0 1 104 210.53)" fill="#FF5E5E"/>
</g>
<rect x="58" y="58" width="140" height="47" rx="5" fill="white"/>
<rect x="87" y="27" width="77" height="5" rx="2.5" fill="#4A4E5D"/>
</g>
</g>
<defs>
<filter id="filter0_d_6_3" x="0" y="-9.78949" width="267" height="441" filterUnits="userSpaceOnUse" color-interpolation-filters="sRGB">
<feFlood flood-opacity="0" result="BackgroundImageFix"/>
<feColorMatrix in="SourceAlpha" type="matrix" values="0 0 0 0 0 0 0 0 0 0 0 0 0 0 0 0 0 0 127 0" result="hardAlpha"/>
<feOffset dx="6" dy="40"/>
<feGaussianBlur stdDeviation="25"/>
<feColorMatrix type="matrix" values="0 0 0 0 0.24346 0 0 0 0 0.279313 0 0 0 0 0.375399 0 0 0 0.255293 0"/>
<feBlend mode="normal" in2="BackgroundImageFix" result="effect1_dropShadow_6_3"/>
<feBlend mode="normal" in="SourceGraphic" in2="effect1_dropShadow_6_3" result="shape"/>
</filter>
<clipPath id="clip0_6_3">
<rect width="960" height="455" fill="white"/>
</clipPath>
</defs>
</svg>
